<?xml version="1.0" encoding="utf-8"?>
<!-- Generator: Adobe Illustrator 16.0.0, SVG Export Plug-In . SVG Version: 6.00 Build 0)  -->
<!DOCTYPE svg PUBLIC "-//W3C//DTD SVG 1.1//EN" "http://www.w3.org/Graphics/SVG/1.1/DTD/svg11.dtd">
<svg version="1.1" id="Layer_1" xmlns="http://www.w3.org/2000/svg" xmlns:xlink="http://www.w3.org/1999/xlink" x="0px" y="0px"
	 width="30.683px" height="34.399px" viewBox="0 0 30.683 34.399" enable-background="new 0 0 30.683 34.399" xml:space="preserve">
<path fill-rule="evenodd" clip-rule="evenodd" fill="#8EC74E" d="M14.562,1.697c0.466-0.269,1.04-0.269,1.506,0l12.472,7.197
	c0.467,0.269,0.754,0.766,0.754,1.305v14.406c0,0.538-0.287,1.035-0.753,1.305l-12.472,7.203c-0.467,0.27-1.041,0.27-1.507,0
	L2.092,25.909c-0.466-0.27-0.753-0.767-0.753-1.305V10.198c0-0.538,0.287-1.035,0.753-1.304L14.562,1.697z"/>
<g>
	<path fill="#FFFFFF" d="M20.333,16.043v-2.94c0-2.696-2.187-4.881-4.881-4.881c-0.033,0-0.057-0.001-0.091-0.001
		c-0.027,0-0.062,0.001-0.089,0.001c-2.696,0-4.881,2.186-4.881,4.882v2.94H8.663v10.095h13.442V16.043H20.333z M12.833,13.104
		c0-1.345,1.093-2.438,2.439-2.438c0.037,0,0.119-0.001,0.119-0.001s0.04,0.001,0.062,0.001c1.344,0,2.439,1.094,2.439,2.438v2.94
		h-5.058V13.104z"/>
</g>
<path fill-rule="evenodd" clip-rule="evenodd" fill="#29ABE2" d="M14.562,1.697c0.466-0.269,1.04-0.269,1.506,0l12.472,7.197
	c0.467,0.269,0.754,0.766,0.754,1.305v14.406c0,0.538-0.287,1.035-0.753,1.305l-12.472,7.203c-0.467,0.27-1.041,0.27-1.507,0
	L2.092,25.909c-0.466-0.27-0.753-0.767-0.753-1.305V10.198c0-0.538,0.287-1.035,0.753-1.304L14.562,1.697z"/>
</svg>
