<?xml version="1.0" encoding="utf-8"?>
<!-- Generator: Adobe Illustrator 18.1.1, SVG Export Plug-In . SVG Version: 6.00 Build 0)  -->
<svg version="1.1" id="Layer_1" xmlns="http://www.w3.org/2000/svg" xmlns:xlink="http://www.w3.org/1999/xlink" x="0px" y="0px"
	 viewBox="-83.2 119 652 280" enable-background="new -83.2 119 652 280" xml:space="preserve">
<g id="Layer_1_1_">
	<polygon opacity="0.24" fill="#12ACEF" enable-background="new    " points="568.8,168.1 547.1,161.4 393.3,146 293.9,244.5 
		568.8,182.3 	"/>
	<path opacity="0.39" fill="#12ACEF" enable-background="new    " d="M530.7,225.6l23.1-7.5l-55-85.8l-231.1,85.8L530.7,225.6z"/>
	<polygon opacity="0.2" fill="#12ACEF" enable-background="new    " points="568.8,123.9 560.5,119 414.9,244.5 568.8,231.8 	"/>
	<path opacity="0.4" fill="#12ACEF" enable-background="new    " d="M568.5,334.3l-61.9,43.9l-181.6-87.8l228.8,9.4L568.5,334.3z"/>
	<polygon opacity="0.4" fill="#12ACEF" enable-background="new    " points="568.8,146.6 535.3,158.1 568.8,201.2 	"/>
	<polygon opacity="0.39" fill="#12ACEF" enable-background="new    " points="568.8,289 562.3,291.7 551,338.4 568.8,345.7 	"/>
	<polygon opacity="0.2" fill="#12ACEF" enable-background="new    " points="568.8,211.8 560.3,214 568.8,215.7 	"/>
	<polygon opacity="0.2" fill="#12ACEF" enable-background="new    " points="568.8,316.3 459.6,343.4 568.8,376.1 	"/>
</g>
<g id="Layer_2">
	<polygon opacity="0.24" fill="#12ACEF" enable-background="new    " points="-83.2,182.4 -56.3,176.4 -83.2,167.9 	"/>
	<polygon opacity="0.2" fill="#12ACEF" enable-background="new    " points="-83.2,231.8 66.8,219.6 -83.2,123.9 	"/>
	<polygon opacity="0.2" fill="#12ACEF" enable-background="new    " points="-83.2,277.6 -23.6,251.6 -83.2,255 	"/>
	<polygon opacity="0.4" fill="#12ACEF" enable-background="new    " points="-31.5,129 -83.2,146.9 -83.2,201.2 -74,213.4 
		149,195.6 	"/>
	<path opacity="0.2" fill="#12ACEF" enable-background="new    " d="M-61.5,339.2L195,290.3L43.3,387.2L-61.5,339.2z"/>
	<polygon opacity="0.39" fill="#12ACEF" enable-background="new    " points="-37.5,267.7 -83.2,289 -83.2,345.4 -24.7,370 
		200.3,272.1 	"/>
	<polygon opacity="0.3" fill="#12ACEF" enable-background="new    " points="257.5,249.5 251.4,249.4 87.7,148.6 29,132.2 
		-0.7,244.2 222.9,248.8 257.5,279.5 393.8,399 443.2,353.6 474.7,254 	"/>
	<polygon opacity="0.2" fill="#12ACEF" enable-background="new    " points="-83.2,316.5 -83.2,376.1 -65.5,381.4 29,288.5 	"/>
</g>
<g id="Layer_7">
	<polygon opacity="0.24" fill="#12ACEF" enable-background="new    " points="257.5,272.6 -12.8,287 129.8,399 257.5,323 
		350.7,267.7 	"/>
</g>
<g id="Layer_6">
	<polygon opacity="0.2" fill="#12ACEF" enable-background="new    " points="553.9,243.5 257.5,119 -83.2,238.6 -83.2,271.8 
		232.2,364 257.5,354.9 524.4,259 568.8,271.8 568.8,238.6 	"/>
</g>
<g id="Layer_5">
	<polygon opacity="0.35" fill="#12ACEF" enable-background="new    " points="529,137.7 267.7,224.3 257.5,222.5 -83.2,146.5 
		-83.2,326.8 217.1,285.5 257.5,291.1 540.5,330.6 568.8,326.8 568.8,146.5 	"/>
</g>
<g id="Layer_4">
	<polygon opacity="0.2" fill="#12ACEF" enable-background="new    " points="399.4,264.8 257.5,196.8 149,144.9 -83.2,211.8 
		-83.2,215.4 74.4,247.2 257.5,346.7 324.9,383.3 568.8,277.6 568.8,255 	"/>
</g>
<g id="Layer_3">
	<polygon opacity="0.24" fill="#12ACEF" enable-background="new    " points="350.7,132.4 257.5,174.8 126.9,234.4 257.5,234.6 
		486.7,234.7 	"/>
</g>
<g id="Layer_8">
</g>
</svg>
