<?xml version="1.0" encoding="utf-8"?>
<!-- Generator: Adobe Illustrator 18.1.1, SVG Export Plug-In . SVG Version: 6.00 Build 0)  -->
<svg version="1.1" xmlns="http://www.w3.org/2000/svg" xmlns:xlink="http://www.w3.org/1999/xlink" x="0px" y="0px"
	 viewBox="-47.2 108.9 453.7 194.4" enable-background="new -47.2 108.9 453.7 194.4" xml:space="preserve">
<g id="Layer_1">
	<polygon opacity="0.24" fill="#12ACEF" enable-background="new    " points="406.5,143 391.4,138.4 284.4,127.7 215.2,196.1 
		406.5,152.9 	"/>
	<path opacity="0.39" fill="#12ACEF" enable-background="new    " d="M380,183l16.1-5.2l-38.3-59.6l-160.8,59.6L380,183z"/>
	<polygon opacity="0.2" fill="#12ACEF" enable-background="new    " points="406.5,112.3 400.7,108.9 299.4,196.1 406.5,187.3 	"/>
	<path opacity="0.4" fill="#12ACEF" enable-background="new    " d="M406.3,258.5L363.2,289l-126.4-61l159.2,6.5L406.3,258.5z"/>
	<polygon opacity="0.4" fill="#12ACEF" enable-background="new    " points="406.5,128.1 383.2,136.1 406.5,166 	"/>
	<polygon opacity="0.39" fill="#12ACEF" enable-background="new    " points="406.5,227 402,228.9 394.1,261.3 406.5,266.4 	"/>
	<polygon opacity="0.2" fill="#12ACEF" enable-background="new    " points="406.5,173.4 400.6,174.9 406.5,176.1 	"/>
	<polygon opacity="0.2" fill="#12ACEF" enable-background="new    " points="406.5,246 330.5,264.8 406.5,287.5 	"/>
</g>
<g id="Layer_2">
	<polygon opacity="0.24" fill="#12ACEF" enable-background="new    " points="-47.2,153 -28.5,148.8 -47.2,142.9 	"/>
	<polygon opacity="0.2" fill="#12ACEF" enable-background="new    " points="-47.2,187.3 57.2,178.8 -47.2,112.3 	"/>
	<polygon opacity="0.2" fill="#12ACEF" enable-background="new    " points="-47.2,219.1 -5.7,201 -47.2,203.4 	"/>
	<polygon opacity="0.4" fill="#12ACEF" enable-background="new    " points="-11.2,115.9 -47.2,128.3 -47.2,166 -40.8,174.5 
		114.4,162.1 	"/>
	<path opacity="0.2" fill="#12ACEF" enable-background="new    " d="M-32.1,261.9l178.5-34L40.8,295.2L-32.1,261.9z"/>
	<polygon opacity="0.39" fill="#12ACEF" enable-background="new    " points="-15.4,212.2 -47.2,227 -47.2,266.2 -6.5,283.3 
		150.1,215.3 	"/>
	<polygon opacity="0.3" fill="#12ACEF" enable-background="new    " points="189.9,199.6 185.6,199.5 71.7,129.5 30.9,118.1 
		10.2,195.9 165.8,199.1 189.9,220.4 284.7,303.4 319.1,271.9 341,202.7 	"/>
	<polygon opacity="0.2" fill="#12ACEF" enable-background="new    " points="-47.2,246.1 -47.2,287.5 -34.9,291.2 30.9,226.7 	"/>
</g>
<g id="Layer_7">
	<polygon opacity="0.24" fill="#12ACEF" enable-background="new    " points="189.9,215.6 1.8,225.6 101,303.4 189.9,250.6 
		254.7,212.2 	"/>
</g>
<g id="Layer_6">
	<polygon opacity="0.2" fill="#12ACEF" enable-background="new    " points="396.1,195.4 189.9,108.9 -47.2,192 -47.2,215.1 
		172.3,279.1 189.9,272.8 375.6,206.2 406.5,215.1 406.5,192 	"/>
</g>
<g id="Layer_5">
	<polygon opacity="0.35" fill="#12ACEF" enable-background="new    " points="378.8,121.9 197,182.1 189.9,180.8 -47.2,128 
		-47.2,253.3 161.8,224.6 189.9,228.5 386.8,255.9 406.5,253.3 406.5,128 	"/>
</g>
<g id="Layer_4">
	<polygon opacity="0.2" fill="#12ACEF" enable-background="new    " points="288.6,210.2 189.9,163 114.4,126.9 -47.2,173.4 
		-47.2,175.9 62.5,198 189.9,267.1 236.8,292.5 406.5,219.1 406.5,203.4 	"/>
</g>
<g id="Layer_3">
	<polygon opacity="0.24" fill="#12ACEF" enable-background="new    " points="254.7,118.2 189.9,147.7 99,189.1 189.9,189.2 
		349.4,189.3 	"/>
</g>
<g id="Layer_8">
</g>
</svg>
