<?xml version="1.0" encoding="utf-8"?>
<!-- Generator: Adobe Illustrator 18.1.1, SVG Export Plug-In . SVG Version: 6.00 Build 0)  -->
<svg version="1.1" id="Layer_1" xmlns="http://www.w3.org/2000/svg" xmlns:xlink="http://www.w3.org/1999/xlink" x="0px" y="0px"
	 viewBox="53.7 90.1 471.3 152.3" enable-background="new 53.7 90.1 471.3 152.3" xml:space="preserve">
<path fill="#FFFFFF" d="M450.1,107.6c-1.3-0.2-2.2-0.4-3.2-0.4c-0.3,0-0.9,0.5-0.9,0.9c-1,4.4-2.1,8.9-2.9,13.4
	c-1.2,6.2-2.3,12.3-3.5,18.4c-0.4,2.1-1.2,2.4-3.3,1.9c-1.5-0.4-2.4-1.1-2.8-2.7c-1.3-4.9-3.1-9.6-4.2-14.5
	c-1.2-5-1.8-10.2-2.8-15.3c-0.3-1.3-0.6-2.6-1-4c2.8-0.3,4.9,1,5.4,3.5c1,4.7,1.7,9.3,2.7,14c0.8,3.4,1.9,6.7,2.8,10.1
	c0.2-0.1,0.3-0.1,0.5-0.1c1.8-9.5,3.7-19,5.6-28.7c1.3,0.4,2.5,1,3.7,1.2c1.8,0.3,3.8,0.7,5.5,0.3c2.1-0.5,3.5,0.2,5.1,1.1
	c0.5,0.3,0.9,0.8,1.4,0.9c1.7,0.3,2.1,1.2,2.2,2.9c0.1,2.9,0.6,5.8,0.9,8.7c0.4,4.5,0.8,9.1,1.3,13.6c0.3,2.5,0.9,4.9,1.4,7.4
	c0.1,0.4,0.4,0.7,0.8,1.4c0.9-1.6,1.6-2.8,2.3-4c1.3-2.2,1.4-4.6,1.2-7.2c-0.6-7.4-1.4-6.6-1.4-14.1c-0.1-6.6,0.1-9.8,0.5-16.4
	c0.2-2.6,1-5.3,1.8-7.9c0.2-0.7,1-1.2,1.6-1.8c0.9,0.8,2.2,1.4,2.4,2.3c0.9,4.4,1.8,8.8,2.1,13.2c0.2,3.6-0.2,3.6-0.7,7.2
	c-0.8,5.8-2.1,11.6-2.4,17.4c-0.3,6.2,0.4,4.2,2.5,10.2c0.2,0.6,0.5,1.2,0.9,1.9c2.2-1.3,2.2-3.5,2.7-5.4c1.4-6.1,1.2-12.3,1.9-18.5
	c0.3-2.4,0.7-4.7,1.1-7.1c2.7,0.3,3.8,1.6,3.8,4.1c-0.2,5.2-0.5,10.4-0.4,15.6c0.1,3.6,0.7,7.2,1.2,10.8c0.1,0.8,0.8,1.6,1.2,2.4
	c0.7-0.4,1.8-0.6,2.1-1.3c1-1.8,1.8-3.8,2.4-5.7c1.4-5.2,1.6-10.6,1.7-16c0.1-3.4,0.3-6.9,0.5-10.3c2.7,0.2,3.7,1.4,3.7,3.8
	c0,5.8,0.1,11.5,0.2,17.3c0.1,3.6,0.3,7.1,0.5,10.7c0.1,0.5,0.3,1.1,0.6,2.1c1.7-2,3.2-3.5,4.2-5.4c0.5-1,0.4-2.5,0.2-3.6
	c-1.2-7.6-1-15.2,1.6-22.5c0.2-0.4,0.4-0.8,0.6-1.2c0.8-1.4,1.6-3.3,3.5-2.7c2.1,0.6,4.3,2.7,4.1,5.1c-0.2,2-0.4,4-1,5.9
	c-1.2,4.6-2.6,9.2-4,13.8c-1.1,3.4-0.3,7,2.3,9.5c1.7,1.6,2.9,1.4,5.9,0.2c2.9-1.2,5.8-2.6,8.7-3.9c0.1,0.2,0.3,0.4,0.4,0.5
	c-0.3,0.4-0.5,0.9-0.9,1.2c-1.6,1.1-3.2,2.2-4.7,3.3c-2.6,1.9-5.4,1.9-8.2,0.9c-2.8-1-5-2.9-7.1-5.5c-1.1,1.4-2.2,2.6-3.1,3.9
	c-0.9,1.3-1.7,2.7-3.4,2.4c-1.8-0.3-3.3-1.5-3.9-3.4c-0.4-1.2-0.6-2.5-1.3-3.9c-0.4,0.9-0.8,1.7-1.2,2.5c-1.3,3.2-4.9,4.3-7.6,2.1
	c-1.3-1-2.2-2.3-3.4-3.5c-0.1,0.2-0.2,0.6-0.3,1c-0.8,2.5-2.9,4.8-6.1,2.6c-2-1.4-3.2-3.3-4-5.5c-0.2-0.6-0.4-1.2-0.8-2.4
	c-0.5,1.2-0.9,2.1-1.2,2.9c-0.4,1.1-0.9,2.1-1.3,3.3c-0.5,1.2-1.3,1.2-2.4,0.9c-3.7-1-5-3.8-5.6-7.2c-0.1-0.8-0.3-1.5-0.8-2.2
	c-0.4,1.1-0.8,2.2-1.4,3.2c-1.1,2-2.3,4-3.6,5.8c-1.1,1.6-2.7,2-4.6,1.6c-2-0.5-3.3-1.7-3.5-3.9c-0.6-5.1-0.8-10.3-0.2-15.4
	c0.5-4.8,1.7-9.3,3.8-13.7C448.8,110.1,449.4,109,450.1,107.6z M449.7,141c0.8-0.9,1.5-1.6,1.9-2.3c0.9-1.9,2-3.9,2.5-5.9
	c1.6-6.4,2.2-12.9,2.4-19.5c0-1.4-0.1-2.9-0.2-4.4C451.2,112,447,132.9,449.7,141z M472.3,95c-1.6,9.2-1.3,14.9-0.7,24.3
	C473.9,110,475.6,104.4,472.3,95z M506.6,130.2c2-5.5,3.8-11.1,3.5-17C506.1,118.3,506.5,124.3,506.6,130.2z"/>
<path fill="#FFFFFF" d="M411.3,131.7c0.3,3.3,0.4,5.9-2.3,8.6c-3.3,4.6-7.5,5.1-9.9-0.6c-1,1.4-2,2.9-3,4.2c-1.3,1.8-3.9,2-5.8,1
	c-4-2.2-5.2-5.9-5-10.1c0.2-5.1,0.8-10.2,1.2-15.3c0.1-0.7,0.2-1.4,0.2-2.1c0.1-2.9-1.9-4.1-4.4-2.8c-1.8,0.9-3.8,1.4-5.7,2.1
	c-0.1-0.2-0.3-0.3-0.4-0.5c0,1-0.1,1.9,0,2.8c0.5,6.1-0.2,12.1-1.4,18.1c-1,4.7-5.4,7.6-8.6,7.7c-3.6,0.2-8.9-2.9-9.5-8.4
	c-0.2-2.1-0.4-4.3-1-6.5c-1,2.2-1.8,4.6-2.9,6.8c-1.8,3.6-2.4,7.2-6.7,8c-0.8,0.1-1.6,0.2-2.2,0.1c-5.1-1.4-9.3-3.9-11.2-9.5
	c-1.8-5.3-2.1-10.8-1.8-16.3c0.2-3.6,0.9-7.2,1.6-10.7c0.3-1.3,1.2-2.5,2.1-3.6c0.5-0.6,1.3-1,2.1-1c4.2-0.4,9.3,2.6,10.7,6.7
	c0.7,2.1,0.4,4.6,0.4,6.8c0,0.3-0.5,0.8-0.8,0.9c-1.1,0.3-3.5-1.6-3.7-2.8c-0.4-2.4-0.8-4.7-1.3-7c-0.1-0.5-0.5-0.9-0.8-1.4
	c-2.6,1.5-3.6,3.9-4.1,6.5c-1.2,7.1-1.3,14.3,0.5,21.3c0.6,2.3,1.8,4.6,3.2,6.5c1.6,2.1,2.8,2.1,4.6,0.4c2.1-2,3.4-4.3,5.1-6.8
	c1.7-2.4,2-5.2,3.4-7.8c2.7-4.7,2.7-10.2,3.9-15.3c0.4-1.9,0.8-3.9,1.1-5.4c1.3-0.5,2.2-1,3.2-1.1c1.7-0.2,3.5-0.5,4.9,0.1
	c3.3,1.4,6.8,2.7,8.1,6.8c0.1,0.3,1,0.6,1.4,0.5c0.7-0.2,1.4-0.6,2-0.9c1-0.6,1.2-1.3,0.9-2.6c-0.4-1.8-0.3-3.7-0.3-5.5
	c0.1-1.2,0.8-1.8,1.9-1.1c1,0.5,2,0.9,2.8,1.6c1.8,1.4,2.4,3.5,1.5,5.7c-0.5,1.3-0.5,2.2,1.1,2.5c1,0.2,2,0.5,2.7,1.2
	c0.8,0.8,1.7,1.9,1.8,2.9c0.2,3.5,0.1,7.1-0.1,10.7c-0.3,4.8-1.1,9.6-0.2,14.5c0.1,0.4,0.3,0.9,0.7,1.9c1.8-2.4,3.4-4.3,4.9-6.4
	c0.2-0.3,0.2-1.1,0-1.4c-3.5-8-2.6-16.2-1.2-24.4c0.3-1.9,0.9-3.9,1.6-5.7c0.9-2.1,2.4-2.5,4.4-1.4c2.7,1.3,4,3.6,3.9,6.5
	c-0.2,4.4-0.8,8.8-1.2,13.1c-0.2,1.8-0.1,3.5-0.4,5.2c-0.5,2.4-1.2,4.8-2.1,7c-0.8,1.8,0.5,3.9,1.6,4.9c0.3,0.3,1.3-0.1,1.8-0.3
	c3.6-2.2,4.3-7,5.8-8.1C410.6,131.8,411,131.8,411.3,131.7z M363.4,111c-0.2,1-0.3,2-0.5,3.1c-1.9,7-2,14-1.2,21.2
	c0.2,1.9,0.7,3.8,1.2,5.7c0.4,1.3,1.1,1.9,2.5,1.1c1.8-1,3.3-2.1,3.9-4.2c0.6-2,1.3-4,1.5-6c0.5-5.2,0.8-10.6,1-15.9
	c0.1-0.6-0.5-1.6-1-1.8C368.4,113.1,366,112.1,363.4,111z M402.6,106c-3.4,2.5-5.5,19.6-3.3,25.1C401.4,123,403,114.9,402.6,106z
	 M371.3,112.4c0.1-3.3-1.1-5.5-3.3-6.1c-0.9-0.2-2.2-0.2-2.7,0.4c-1,1.1-0.3,3.2,1,3.8C367.8,111.3,369.4,111.8,371.3,112.4z"/>
<g>
	<path fill="#FFFFFF" d="M135.4,140.6c3.9-3.4,5.6-7.2,5.6-11.5c0.1-7.2-0.3-14.5-0.5-21.8c-0.1-3.1-0.2-6.2-0.3-9.3
		c4-1,5.7,0.1,5.8,3.9c0.3,6.2,0.2,12.3,0.7,18.4c0.5,4.9,0.7,9.8-1.2,14.4c-1.2,2.8-3,5.5-5.2,7.6c-3.1,2.9-9,1.7-10.8-2.3
		c-1.5-3.4-2.5-7.1-2.9-10.7c-1.2-10.2-2-20.5-3-30.8c3.5-0.6,5.9,1,6.3,4.3c1.2,10.2,2.4,20.4,3.7,30.6
		C133.9,135.5,134.7,137.7,135.4,140.6z"/>
	<path fill="#FFFFFF" d="M161.8,121.2c7.5,4.1,7.7,17,14,22.4c-2.1,1.5-4.2,0.3-5.4-0.6c-3.8-2.9-5.4-10.3-7.3-14.7
		c-1.3-2.9-2.1-5.4-5.5-6.8c0.3,2.9,0.5,5.5,0.7,8c0.3,4.4,0.6,7.5,1,11.9c0.2,2.3-1.1,2.7-2.6,2.4c-2.1-0.5-3.6-1.8-3.8-4.6
		c-0.5-11.1-1.2-20.4-1.8-31.4c-0.2-3.7-0.5-7.4-0.8-11.1c-0.1-0.7-0.5-1.5-0.9-2.9c2.8,0.3,5.3,0.5,7.8,0.8c1,0.1,1.8,0.6,2.8,0.8
		c8.4,1.8,10.7,10.6,7.3,17.9C165.9,116.2,163.7,118.2,161.8,121.2z M157.4,116.6c3.8-4,5.7-8.2,5.5-13.4c-0.2-4.6-1.6-6.1-5.5-6.3
		c-1.2-0.1-1.9,0.2-1.7,1.6C156.2,104.4,156.8,110.2,157.4,116.6z"/>
	<path fill="#FFFFFF" d="M53.8,132.4c0.9-0.3,1.8-0.6,2.6-0.9c2.8-0.9,3.4,0.4,3.6,3.4c0.3,2.9,1.1,7.2,3.7,9
		c1.7,1.1,2.9,0.9,4.1-0.6c2.4-2.8,3.1-8.4,1.6-11.5c-1.5-3.2-3.5-6.2-5.5-9.1c-2.2-3.2-4.8-4.8-7.1-7.9c-4.1-5.3-4.1-11.7,0.2-16.8
		c0.9-1.1,2.6-1.9,4-2c4.8-0.4,9.8-0.4,12,4.9c1.4,3.4,1.1,1.2,1.7,4.9c0.2,1.1-0.5,3.2-0.9,3.2c-1.6,0.2-3.2-0.3-4.8-0.7
		c-0.4-0.1-0.5-1.2-0.6-1.8c-0.8-3.8-0.6-1.6-1.6-5.2c-0.2-0.9-1.3-1.6-2-2.4c-0.7,0.7-1.7,1.2-2.1,2.1c-3.9,6.6-3.3,10.9,1.8,17.1
		c3.5,4.3,6.9,7.6,10,12.2c1.1,1.6,1.8,3.6,2,5.5c0.7,6.3-4.4,12.6-10.7,11.3c-1.9-0.4-3.7-1-5.4-1.8
		C55.5,143,55.1,139.2,53.8,132.4z"/>
	<path fill="#FFFFFF" d="M84.5,124.9c0.4,3.3,0.8,6.1,1,9c0.2,2,0.5,3.9,0.5,5.9c0,1.8,0.8,2.6,2.4,2.5c3.1-0.2,4.6-0.5,7.7-0.8
		c0.4-0.1,0.8-0.2,1.1-0.1c0.9,0.4,1.8,1,2.6,1.4c-0.9,0.4-1.7,1-2.6,1.3c-4.8,1.3-7.8,1.4-12.4-0.8c-2.8-1.3-4.9-3.2-4.9-6.9
		c0-4.2-0.8-8.3-1.1-12.5c-0.2-3.3-0.3-6.5-0.3-9.8c-0.1-3.6,0.1-7.3-0.2-10.9c-0.1-1.3-1.1-2.5-1.9-4.2c3.1-0.2,6.3-0.5,9.5-0.5
		c2.9,0.1,11.2-0.4,13.2,0.4c-0.1,0.3-0.1,1.9-0.1,2.2c-0.8,0.1-7.6,1.2-10.8,1c-1.7-0.1-3.3,0.1-5.1,0.1c0.4,6.6,0.9,13,1.3,19.4
		c1.2,0.1,2.5,0.2,3.8,0.2c3.5-0.1,4.1-0.5,7.5-0.3c1.2,0.1,2.2,1.6,3.4,2.4c-0.4,0.4-0.7,1.2-1.1,1.2c-1.1,0.1-2.2-0.1-3.4-0.2
		C90.5,124.9,89.2,124.9,84.5,124.9z"/>
	<path fill="#FFFFFF" d="M111.1,100.8c-4.9,8.7-2.2,37.9,2.7,42.4c1.2-1.6,2.5-3.2,3.6-4.8c1.4-2.1,2.1-2.1,4.5-0.6
		c2,1.3,1.1,2.4,0.1,3.7c-3.6,4.7-8.1,5.5-13.2,2.6c-2.7-1.6-3.5-4.4-4.1-7c-2.2-10.2-3.4-20.5-1.5-31c0.2-1.1,0.4-2.2,0.7-3.3
		c1.6-5.1,5-6.6,9.9-4.2c4.9,2.5,6.8,6.9,7.7,12c0.1,0.4,0.1,0.8,0.2,1.2c0.3,1.5,0.2,2.8-1.7,3.1c-1.8,0.3-3.5-0.9-4-2.4
		c-1.1-3.4-2.2-6.8-3.5-10.1C112.3,101.8,111.7,101.5,111.1,100.8z"/>
	<path fill="#FFFFFF" d="M213,110.3c3.4-5,6.7-10,10.1-15c2.8,1.1,3.6,2.6,2.2,5.1c-2.8,5.1-6.2,8.7-8.9,13.9
		c-0.9,1.6-1.5,1.6-1.4,3.5c0.3,5.6-0.2,16.6,0.4,22.1c0.1,1.3,0.4,2.9-1.3,2.9c-1.4,0-2.6-0.9-2.7-2.8c-0.5-7.9-0.1-15.9-0.9-23.7
		c-0.2-2.2-1.6-4.4-2.4-6.5c-1.6-4.5-3.7-9.9-5.4-14.5c0,0,3.4-3.1,4.1-1c1.4,3.9,4.3,12.9,5.7,16.7
		C212.9,111.1,212.8,110.3,213,110.3z"/>
	<path fill="#FFFFFF" d="M180.5,96.6c7.1-1.1,13.8-2.1,20.6-3.2c1.4,0.3,0.1,2.9,0.1,4.3c-2.4,0.2-4.9,0.4-7.3,0.6
		c-0.8,0.1,0.7,7.1,0.8,10.7c0.2,8.8,1.1,22.1,1.2,30.9c0,0.3,0.1,0.7-0.1,1c-0.3,1.2,0.6,3.2-1.6,3.3c-1.4,0.1-3.1-2.1-3.1-3.8
		c0-9.1-1-22.6-1-31.6c0-2.5-0.8-4.9-0.6-7.3c0.1-2.1-1.7-3.1-4-2.5C183.2,99.7,181.6,100.8,180.5,96.6z"/>
	<path fill="#FFFFFF" d="M174.3,95.6c3.9,0.6,4.8,1.7,5,5.4c0.8,12.5,1.6,26.9,2.3,39.4c0.1,1.3,0.6,3.1-1.3,3.5
		c-1.7,0.4-3.4-1-3.7-3.1c-0.3-2.9-0.6-9.1-0.8-12.1c-0.5-10.8-1-20.4-1.6-31.2C174.3,97,174.3,96.4,174.3,95.6z"/>
</g>
<g>
	<path fill="#FFFFFF" d="M244,109.3c4.1,0.5,5.3,1.9,5.1,5.7c-0.3,5.1-0.5,10.2-0.7,15.3c-0.1,0.9,0.2,1.8,0.5,2.7
		c3.5-3.4,5.3-7.7,6.6-12.1c1.3-4.5,2.2-9.2,3.3-13.8c2.9,0.3,3.8,1.1,4.1,4.4c0.6,5.6,2.1,11,4.1,16.3c1.1,2.9,2.2,6,1.7,8.7
		c1-0.8,3.1-1.1,4-1.9c-1,4.4-4.6,4.7-8.8,5.9c-4.4,1.3-7.2-1.7-10.2-4.3c2.3-1.1,3.8,0,5.3,1.2c1.3,1.1,2.5,0.1,3.1-0.8
		c0.7-1.2,1.4-2.8,1.2-4c-1.1-4.8-1.3-6.6-3.1-11.2c-1.3,3.1-3.3,6.2-4.8,9.1c-1,1.8-3.9,5.4-5.6,6.5c-2.9,1.9-5.8-2.5-6.3-6.1
		c-0.4-3-0.5-6.1-0.3-9.1C243.1,117.8,243.6,113.6,244,109.3z"/>
	<path fill="#FFFFFF" d="M243.7,99.6c1.9,0.9,3.6,1.7,5.1,2.6c0.4,0.2,0.5,1.6,0.3,1.7c-0.8,0.6-1.8,1.2-2.7,1.2
		c-1.3,0.1-3.6-2.8-3.5-4.1C243.1,100.5,243.5,100.1,243.7,99.6z"/>
</g>
<path fill="#FFFFFF" d="M297.7,104.4c3.1-1.1,6.9,1.1,7.2,4.1c0.1,1.1,1.7,0.7,2.3,2.1c0.8,7.5-0.9,13-0.2,20.6
	c0.3,2.7,0.3,5.5,1.8,8.4c0.7-0.7,1.3-1.2,1.7-1.8c1.3-2.3,3.1,0.5,2,2.1c-1,1.4-2.3,1.9-4.1,1.4c-2.9-0.8-4.8-2.5-5.2-5.3
	c-0.4-2.4-0.7-4.8-1.1-7.3c-0.1-0.4-0.2-0.8-0.2-1.2c-0.2,0-0.3-0.1-0.4-0.1c-0.3,1.2-0.6,2.3-0.8,3.5c-0.6,3.5-1.6,6.9-3.6,9.9
	c-0.6,0.9-2,1.8-3,1.8c-1.9-0.2-3.8-0.9-4.6-2.8c-1.4-3.4-1.9-7-2.1-10.7C287.1,121.9,293.2,105.7,297.7,104.4z M294,138.4
	c2.9-2.5,7.7-25.3,6.1-28.9C293.8,114.9,289.9,132.4,294,138.4z"/>
<path fill="#FFFFFF" d="M78.9,188.9c1.8-0.4,2.7-1.6,2.9-3.3c0.3-3.3,0.5-6.6,0.8-10c0.2-2,0.2-4,0.4-5.9c0.1-1,0.6-2,1-2.9
	c0.5,0.1,3.6-1.9,3.8,6c0.1,3.3-0.4,6.5-0.8,9.8c-0.4,3.8-0.9,7.7-1.3,11.5c-0.1,1-0.2,1.9-0.2,2.9c-0.1,1.1,0.5,1.7,1.6,1.3
	c1.7-0.6,3.5-1.1,5-2c4.5-2.8,2.7-1.4,6.9-4.2c-1.1,4.3-5.1,7.8-11.1,8.3c0.9,1.9,1.6,3.7,2.5,5.4c3.4,6.4,3.2,12.7-0.4,18.9
	c-1,1.7-2.7,2.4-4.4,1.7c-3.4-1.3-5.4-2.9-5.6-6.7c-0.3-4.2-0.2-8.5,0.1-12.7c0.3-4.8,0.9-9.6,1.2-14.4c0.1-0.8,0.4-1.9-1-1.9
	c-1.2,0-1.2,0.9-1.2,1.8c0,3.3,0.1,6.7-0.1,10c-0.2,3.6-1.4,7-3.5,10c-1.1,1.6-2.9,2-4.9,1.3c-4.4-1.6-6.9-4.8-7.1-9.6
	c-0.4-7.2,1.2-13.8,5.2-19.9c0.8-1.2,1.7-1.8,3.3-1.3C76.1,184.3,76.1,184.2,78.9,188.9z M72.6,188c-0.5,0.8-1,1.4-1.3,2.2
	c-1.9,4-2.9,8.3-3.1,12.6c-0.2,2.5,0.6,5.1,1.2,7.7c0.4,1.4,1.4,1.4,2.2,0.3c1.1-1.7,2.4-3.3,2.8-5.2c0.9-4.5,1.3-9.1,1.9-13.6
	c0.1-0.6-0.4-1.3-0.9-1.8C74.5,189.4,73.6,188.9,72.6,188z M85.4,199.7c-0.2,1.1-0.3,1.9-0.4,2.7c-0.1,1.8-0.2,3.6-0.3,5.4
	c-0.1,4.6-0.2,9.1-0.3,13.6c0,0.8,0.4,1.6,0.7,2.6C90.2,218.9,90.1,205,85.4,199.7z M76.1,189.4c0.1-1,0.1-1.8,0.2-2.7
	c0-0.2,0-0.5-0.1-0.6c-0.2-0.4-0.5-0.8-0.9-1c-0.2-0.1-0.6,0.1-0.9,0.3C73.3,186.6,74.2,188.9,76.1,189.4z"/>
<path fill="#FFFFFF" d="M197.8,199.9c0.1-1.7,0.3-3.3,0.2-5c-0.7-8,0.3-16,1.9-23.8c0.6-3.3,0.4-3.7,3.9-3c1.9,0.4,2.4,1.3,1.9,3.2
	c-2.7,9.9-2.5,20-2.1,30.2c0.3,7.8,0.5,15.5,0.8,23.2c0.1,1.6-0.6,2.1-2.1,2.2c-3.7,0.2-4.3-0.3-5.8-3.7c-3.6-8-4.7-16.6-6.5-25
	c-0.3-1.6-0.8-3.1-1.1-4.7c-0.2,0-0.4,0-0.6,0.1c-0.2,3.3-0.4,6.6-0.4,9.9c0,5.6,0.2,11.1,0.1,16.7c0,0.6-0.8,1.7-1.5,1.9
	c-3.1,1-5.7-0.7-5.6-4c0.2-10.9,0.5-21.9,0.7-32.8c0.1-4.8,0-9.6,0-14.5c4.2-0.5,6.2,0.3,7.9,4.7c2,5.2,3.7,10.6,5.4,15.9
	c0.9,2.8,1.4,5.8,2.2,8.7C197.3,199.9,197.5,199.9,197.8,199.9z"/>
<path fill="#FFFFFF" d="M207.5,205.2c0.1-10.6,2.5-20.7,5.3-30.8c0.5-1.7,1.7-3.1,2.5-4.7c0.2-0.3,0.6-0.7,0.8-0.6
	c2.4,1,5.3,0.5,7.2,3.2c3.4,4.8,5.1,10.1,6.1,15.7c1.4,8.8,2.1,17.7,0.2,26.5c-1.3,6.2-5.3,11.7-14.3,9.1c-5-1.4-6.3-5.3-7.1-9.5
	C207.7,211.3,207.8,208.2,207.5,205.2z M220.1,175.5c-0.2,0.1-0.4,0.1-0.7,0.1c-0.3,0.8-0.8,1.6-1,2.4c-2.3,9.7-4.9,19.3-4.6,29.5
	c0.1,4.6,0.4,9.2,2.7,13.3c1.2,2.1,2.2,2.3,3.6,0.3c1.3-2,2.8-4.2,3.1-6.5c0.6-6.1,1.1-12.2,0.9-18.3c-0.2-5.4-1.4-10.8-2.4-16.2
	C221.6,178.6,220.7,177.1,220.1,175.5z"/>
<path fill="#FFFFFF" d="M232.8,171.4c5.6,0.9,9.9,3.7,13.3,7.8c6.8,8.1,8.8,17.6,7.7,28c-0.5,5-1.8,9.6-4.7,13.6
	c-1.6,2.2-3.5,4.2-5.4,6.1c-1.3,1.2-4.3-0.2-5.7-1.4c-3.2-2.9-2.3-6.7-2.6-10.2c-0.5-7.4-0.9-14.8-1.4-22.1
	c-0.4-6.7-0.9-13.4-1.3-20.1C232.7,172.6,232.8,172.1,232.8,171.4z M238.6,175.3c1.2,14.5,2.3,28.8,3.5,43.1
	c0.1,0.4,0.3,0.7,0.5,1.2C251.8,208,248.8,181.1,238.6,175.3z"/>
<path fill="#FFFFFF" d="M253.9,173.8c4.9-1,9.2-1.9,13.4-2.7c2-0.4,4-0.8,5.9-0.9c2.3,0,4.3,1,6.2,3.1c-2.8,0.4-5.1,0.7-7.5,1.1
	c-2.9,0.5-5.8,1.1-8.7,1.5c-1.4,0.2-1.8,0.9-1.2,2.1c2.1,5.2,2,10.7,1.6,16.2c-0.1,1.4-0.1,2.8,0.2,4.2c0.1,0.4,1,1,1.6,1
	c3.5-0.1,2-0.5,5.5-0.6c2.4-0.1,4.7-0.1,7,0.2c1.2,0.2,2.4,0.9,3.5,1.4c-0.1,0.2-0.1,0.4-0.2,0.6c-7.3,0.5-9.6,1.1-17.4,1.7
	c0.2,2.6,0.3,5.1,0.6,7.6c0.4,3.2,1.1,6.4,1.5,9.6c0.2,1.6,0.9,2,2.4,1.8c2.4-0.4,4.9-0.5,7.2-1c1.9-0.4,3.7-1.2,5.9-1.9
	c-0.3-0.2-0.1-0.1-0.1,0c0.5,1.2,1,2.4,1.6,3.5c-1.2,0.4-2.4,0.9-3.7,1.1c-4,0.6-7.9,1.1-11.8,1.5c-4,0.4-6.7-1.9-7.1-5.8
	c-0.6-6.5-1.6-12.9-2.1-19.4c-0.3-4.2,0.3-8.4,0.2-12.6C258.3,182.5,259.8,177.2,253.9,173.8z"/>
<g>
	<path fill="#FFFFFF" d="M477,210.4c1.9-1.1,2.8-2.8,3.8-4.5c0.8-1.4,1-3.1,1-4.7c0.1-5.8,0.1-18.2,1.1-19.1s4.3,0.9,4.1,2.8
		c-1.1,7.7-1.6,15.6-1.3,22.4c0.1,1.6,0.5,3.1,0.9,4.7c0.5,1.7,0.9,1.8,2.4,0.8c2-1.4,3.1-3.5,4-5.7c0.9-2,1.7-4,2.2-6.1
		c0.4-1.4,0.1-2.9,0.1-4.3c0.1-3.8,0.2-8.1,0.4-11.9c0-0.5,0.2-1.1,0.4-1.6c0.5-1.3,1.3-1.4,2.1-0.3c0.7,1,1.1,1.9,1,3.3
		c-0.2,4.7-0.1,10,0,14.8c0.1,2.3,0.5,4.6,0.8,6.9c0.2,0.1,4.3-5.5,5.8-8.5c1.5-2.9,3.1,0.8,2.2,3.1c-1.1,3.1-3.4,4.7-5.2,8.4
		c-1.1,2.1-2.1,4-1.9,6.4c0.4,3.6,0.5,7.3,0.5,11c0.1,3.1,0.4,6.4-1.1,9.2c-2.1,3.7-6.3,6.8-11.2,4c-6.2-3.4,1.1-19,4.3-24.2
		c0.9-1.4,1.7-2.5,2.6-3.9c0.2-0.3,0.6-0.8,0.5-1.1c-0.2-1.9-0.4-3.8-0.9-5.7c-0.4,1.4-0.8,2.8-1.3,4.2c-0.4,1.2-0.9,2.4-1.7,3.3
		c-4.2,4.8-9-0.5-9.8-3c-0.2-0.5-0.6-1-0.9-1.6c-0.6,0.9-0.6,1.7-1.2,2.5c-1.5,1.9-3.1,2.1-5,0.5c-2.4-2-3.8-4.5-4.2-7.6
		c-0.2-1.2-0.3-2.2-0.6-3.5c-0.2,1-0.3,1.8-0.4,2.8c-0.5,3.5-1.1,6.2-3.6,8.9c-1.4,1.6-2.9,1.7-4.6,0.3c-1.8-1.4-3.7-3.2-3.6-5.8
		c-0.2,0.1-0.6,2-0.9,2.8c-0.5,1.6-1,3.3-1.8,4.7c-0.8,1.3-2,1.3-3.3,0.6c-2.6-1.4-3.2-3.9-3.7-6.4c-1.2-6-1.4-9.6-1.2-15.7
		c0.1-2.8,0.2-4.3,0.3-7.1c0-0.5-0.1-0.2-0.2-1.1c-0.5,0.5-0.9,0.1-1.1,0.4c-2,2.9-5.3,11.2-5.6,13.9c-0.3,2.7-0.5,5.5-0.5,8.2
		c0,2.1,0.3,4.2,0.4,6.4c0.1,0.5-0.1,1.5-0.3,1.6c-0.6,0.1-1.3,0.1-1.9-0.2c-0.9-0.5-1.8-1.1-2.2-1.9c-0.5-1-0.7-2.3-0.8-3.4
		c-0.4-4.6-0.6-5.4-1-10.1c-0.2,0.7-2.2,11.7-3.2,13.2c-1.1,1.8-2.7,4.1-4.3,2.7c-2.9-2.5-4-8.1-4.5-11.7c0-0.2,0.2-0.3-0.1-0.5
		c-0.3,1.5-0.8,2.7-1,4.2c-0.4,2.6-1.2,6.7-2.8,8.7c-1.7,2.2-3.9,2.5-6.2,1c-2.6-1.6-3-4.2-3.5-7.1c-0.9,1.7-1.7,3.1-2.4,4.7
		c-0.8,1.9-1.9,2.9-4.4,1.7c-2.9-1.3-4.3-3.8-4.2-6.6c0.3-4.7,2.6-22.8,1.3-22.5c-3.3,4-5.4,8.1-6.4,13.1c-1.1,5.2-1.4,16.2-3,16.1
		c-2.6-0.5-3.1-1.2-2.8-3.8c0.3-3.6,0.4-8.8,0.8-12.5c0.8-8.3,0.6-12.1-0.3-14.8c-0.1-0.4-0.6-0.7-2.7,1.7
		c-2.9,3.3-3.6,6.1-4.3,10.3c-0.7,4.1-1,15.8-1,17.4c0,1.3-4.7,1.3-5.6-0.4c-0.2-0.4,0.2-2.7,0.1-2.6c-1.1,2.1-1.7,7.2-4.4,6.6
		c-3.1-0.6-4.7-2.3-5.2-5.4c-1.2-6.9-0.6-11.5,0.1-18.4c0.4-3.6,1.1-10-0.2-10.1c-1.1,0.3-5.1,10.6-5.5,14.4c-0.3,3.7-0.5,4.2-0.6,8
		c0,1.1-0.1,2.3-0.2,3.4c-0.1,1.1-0.5,2.4-1.6,2.2c-2.2-0.5-3.4-2.2-3.4-4.4c0.2-6.1,0.4-10.2,0.5-16.3c0-2.7-0.3-4.8-0.5-7.5
		c0-0.2-0.1-0.4-0.2-0.8c-1.9,0.9-2.5,2.6-3.1,4.2c-1.6,4.5-2.5,6.4-3,11.1c-0.3,2.2-0.9,11.5-0.6,13.8c0.2,1.4,0,2.8-1.2,3.1
		c-1,0.3-2.5,0.8-3.2-0.4c-1-1.7-0.4-14.4-0.5-19.2c0-2.5-0.3-1.4-0.3-3.7c-1.1,0.5-2.4,0.3-3.5,0.9c-0.2,0.1-0.3,0.6-0.3,0.9
		c0.2,2.2,0.2,1.7,0.3,3.9c0.4,6.2-0.3,9.8-3.7,14.8c-0.6,0.9-1.1,1.8-1.7,2.6c-1.9,2.4-4.7,2.6-7.4,1.8c-2-0.6-2.2-0.7-3.5-2.6
		c-1.2-1.8-2.2-4.6-2.4-6.6c0-0.2,0.1-0.5-0.2-0.8c-0.7,1.3-3.4,7.2-4.5,8.8c-1.7,2.3-4.5,2.7-7.1,2.1c-4.3-1-6.2-4.1-7.3-8.2
		c-2-6.9-1.3-15.5,1-22.1c1.3-4,2.2-4,4.4-7.4c1-1.5,2.2-2.3,3.9-1.9c1.4,0.3,3.4,0.8,4.8,1.4c3,1.4,2.4,8.1,1.9,8.9
		c-0.2,0.3-1.9,0.5-2.2,0.3c-0.5-0.2-1.1-0.8-1.1-1.2c0.1-1.1,0.8-6.4-1.6-6.5c-2.4-0.1-4,4.6-5.5,8.8c-1.8,5.2-2.4,10.2-1.4,15.7
		c0.4,2.7,0.4,6.4,2.3,8.4c3.6,3.9,8.5-3.9,9.7-7.8c2.1-3.8,2.6-4.6,3.1-8.8c0.5-4.9,2.6-13.6,4-15.8c0.9-1.3,1.6-2.2,3.1-2.4
		c0.3,0,0.8-0.2,1-0.4c0.5-0.8,2.2-0.8,3.1-0.6c2.7,0.6,4,2.5,4.9,5c0.7,1.9,1.3,3.9,1.4,5.9c0,0.2,0.1,0.4,0.1,0.6
		c0,0.1,0.1,0.1,0.4,0.4c1-1,2.1-1.8,3-2.9c1.1-1.5,2-3.2,2.1-5.1c0.1-0.9,0.5-1.3,1.4-1c0.4,0.1,0.8,0.2,1.2,0.3
		c1.8,0.4,2.2,1.1,2.1,2.9c-0.2,1.9-0.2,1.1-0.3,2.9c-0.1,0.3,0,0.6,0.1,1c0.7-1.6,1.3-2.9,1.9-4.3c0.1-0.2,0.1-0.3,0.2-0.4
		c0.8-1.1,1.4-2.8,2.9-2.8c2.5,0.1,4.8,1,5.6,3.7c0.5,1.8,0.7,2.8,1.1,4.6c0.1,0.3,0.1,0.5,0.2,1.2c1.1-1.9,2.1-5.6,3.1-7.2
		c0.2-0.4,0.5-0.8,0.8-1.1c1.6-2.1,4-1.9,5.4,0.4c1.1,1.8,1.4,3.9,1.3,5.9c-0.1,3.7,0,7.4-0.2,11.1c-0.4,5.8-0.6,9.2,0.2,15
		c0.1,0.4,0.3,0.3,0.5,1c0.9,1.5,3.6-4.2,3.8-8c0.2-2.7,2.4-20.6,2.9-25.1c0.1-0.4,0.2-0.9,0.3-1.7c1.2,0.4,2.4,0.8,3.4,1.3
		c0.4,0.2,0.6,1,0.6,1.5c0,1.3-0.2,2.7-0.2,4.1c0.8-1.1,1.3-2.2,2.2-3.2c1.2-1.3,1.8-2.6,3.2-3.7c1.3-0.9,2.5-0.5,3.9,0.4
		c1.2,0.8,2.6,5.4,2.2,10.3c0,0.3,0,0.5,0.3,0.8c0.8-1.6,4.7-9.1,7.8-9.2c1.2-0.1,4.4,0.9,3.6,9c-0.5,5.2-1.5,11.8-1.3,17.2
		c0.1,2.3-0.3,2.9,0.8,4.6c1.6,1.3,2-1.8,2.9-3c1.8-2.5,2.9-8.3,4.3-22.7c0.2-2.3,0.4-4.4,0.7-6.8c1.6-0.1,3,0.6,4.2,1.7
		c0.4,0.4,0.5,1.3,0.5,2c-0.3,4-0.8,6.5-1.1,10.4c-0.3,3.2-1.3,18.5-0.1,19.1c1.6,0.7,2.6-2.2,3.1-3.6c1.6-5.2,2.6-11.9,3.9-17.2
		c1.1-4.7,1.9-8,2.9-12.8c0.1-0.2,0.2-0.5,0.3-0.8c0.5,0.2,1.1,0.3,1.6,0.5c2.5,1,2.9,1.4,2.3,4c-1.4,6.3-1.8,12.2-1.4,18.6
		c0.2,3.1,0.7,3.2,2.1,6c0.1,0.2-0.3-0.2,0.1,0.4c1.1,0.4,1.4-1.9,2.1-3.3c2-4.4,2.2-9.2,3-14c0.4-2.5,0.5-3.5,0.8-5.9
		c0.3-2.5,0.5-3.6,0.8-6.1c2.2-0.3,4.3,0.4,4.1,2.6c-0.3,3.8-0.4,7.5-0.6,11.2c0.1,0,0.2,0,0.3,0.1c0.8-2.1,1.5-4.2,2.4-6.2
		c0.8-1.9,1.7-3.7,2.8-5.4c0.6-1,1.6-2.1,2.9-1.7c1.6,0.4,3.3,1.1,3.6,3.1c0.3,2.1,0.5,4.2,0.5,6.4c0.1,3.5-0.2,4.6,0.1,8.1
		c0.3,4.2,1,8.4,1.5,12.5c0,0.1,0.1,0.2,0.3,0.5c0.3-0.4,0.8-0.7,0.9-1.1c1.7-4.2,2.9-7.4,3.3-12.1c0.4-4.6,1.3-9.7,2-14.3
		c0.2-1.2,0.4-2.5,0.6-3.7c2.2,0.1,4.1,2,3.8,4.2c-0.4,3.3-1.1,7.1-1.4,10.3c-0.5,5.1-0.8,9.3,0.6,14.8c0.6,0.4,1.4-0.4,2.4-2.3
		c1.8-3.8,2.1-5.9,3.7-10.7c1.1-3.4,1.2-7.2,1.5-10.7c0.2-1.9,0.5-3.8,0.9-5.7c0.1-0.3,0.1-0.5,0.2-1.1c-2.5,1.1-4.7,0.9-6.9-0.8
		c2.3-0.7,4.3-1.4,6.3-2c0.9-0.3,1.5-0.8,1.7-1.9c0.6-3.1,1.3-6.1,2-9.1c2,0.5,3.5,2.6,3.2,4.6c-0.2,1.3-0.4,2.5-0.6,4
		c0.8-0.2,1.5-0.4,2.2-0.6c2.7-0.7,5.4-1.6,8-2c1.4-0.3,2.9,0.1,4.4,0.4c0.4,0.1,0.6,0.7,1,1c-0.3,0.2-0.5,0.5-0.9,0.5
		c-3.3,0.8-6.7,1.4-10,2.2c-1.5,0.4-2.9,0.9-4.3,1.4c-0.5,0.2-1,0.8-1.1,1.2c-1.9,7.6-2.2,15.9-1.6,23.6c0.2,2.3,0.5,4.4,0.9,6.7
		C476.7,209.8,476.9,210,477,210.4z M327.7,216.4c1.4-0.2,3.3-3.6,4.3-5.2c1.4-2.3,2-4.7,2.6-7.3c1-4.8,0.6-4.8,0.4-9.6
		c0-0.2-0.1-0.5-0.3-0.6c-2.2-0.2-6.2-4.1-6.5-6.9C325.1,192.2,323.5,215.9,327.7,216.4z M499.4,218.7c-0.3,0.4-0.2,0.3-0.4,0.5
		c-2.1,3.2-8.5,19.2-5.8,20.9c3.6,2.3,5.5-1,6.1-6c0.3-4.8,0.3-9.5,0.3-14.3C499.6,219.5,499.5,219.2,499.4,218.7z M333.6,185.3
		c-0.2,0.1-0.4,0.1-0.6,0.1c-0.2,2.4-0.2,4.6,1.2,6.6c0.2-0.1,0.3-0.1,0.5-0.1C334.3,189.8,333.9,187.6,333.6,185.3z"/>
	<path fill="#FFFFFF" d="M461.4,172.2c0-1.2,2.7-0.7,4.1-0.7c0.2,0,1.3,1.8,1.7,2.2c-0.5,0.2-1.1,0.6-1.6,0.6
		c-0.5,0-1.1-0.3-1.6-0.5C463.1,173.4,461.4,173.4,461.4,172.2z"/>
</g>
<path fill="#FFFFFF" d="M114,189.3c-3.6,0.7-4.8,1.8-8.4-0.4c0.5-0.2,0.8-0.4,1.1-0.4c2.8-0.5,3.4-1.1,6.3-1.6
	c1.1-0.2,1.4-0.7,1.4-1.7c0-5.3,0.1-10.7,0.2-16.4c1.5,1,2.9,1.8,4.2,2.9c0.4,0.3,0.6,1.2,0.6,1.8c0.1,3.8,0.2,7.4,0.3,11.2
	c0,0.2,0.1,0.3,0.1,0.4c3.8-0.3,6.6-1,10.5-1.3c0.3-2.4,0.4-4.9,0.9-7.4c0.7-4,1.4-8,2.5-11.8c0.6-2.1,2.5-2.2,3.9-0.4
	c0.6,0.8,1.2,1.8,1.3,2.7c0.2,2.6,0.6,5.2,0.2,7.8c-0.7,4.6-1.9,9-2.9,13.5c-0.5,2.4-1,4.7-1.6,7.5c1.1-1.8,2-3.3,2.9-4.8
	c1.2-1.9,2.3-3.9,3.5-5.8c0.2-0.3,0.6-0.6,1-0.7c1.6-0.2,3.5,1,4.1,2.5c1.2,3.1,1.1,6.4,1.3,9.6c0.4,5.1-0.6,10.3-0.2,15.4
	c0.1,0.6,0.3,1.3,0.5,1.9c2.7-1,6.3-4.3,6.3-6.9c0-5.1,0.1-10.2,0.4-15.3c0.2-2.5,0.9-4.9,1.6-7.3c0.2-0.7,1-1.6,1.6-1.7
	c1.3-0.2,2.6,0,3.3,1.5c1.4,3.3,2.4,6.6,1.8,10.2c-0.7,4.5-1.9,8.8-4,13c-1.3,2.7-0.2,5.6,2.1,7.6c1.4,1.2,2.5,0.5,3-0.8
	c0.5-1.4,1-2.8,1.7-4.2c0.1,0.6,0.2,1.1,0.3,1.7c0.2,0.9,0.3,1.8,0.5,2.7c0.2,1.1-0.1,1.9-1,2.6c-1.2,1-2.7,0.8-4,0.3
	c-2-0.8-3.5-0.5-4.8-2.2c-0.4-0.5-0.7-1-1.2-1.7c-0.9,0.8-1.6,1.5-2.5,2.1c-3.7,2.6-9-0.6-9.7-3.9c-1.3-6,0.1-12.1-0.1-18.2
	c0-1-0.1-1.9-0.2-2.9c0-0.2-0.1-0.3-0.3-0.8c-1.3,2.4-2.5,4.5-3.5,6.7c-2.1,4.3-3.9,8.7-4.9,13.4c-0.2,0.9-0.2,1.9-0.3,2.8
	c-0.1,1.3-0.9,1.8-2,1c-1.5-1-3-2.1-2.7-4.3c0.1-1,0-1.9-0.1-3.3c-1.4,1.7-2.6,3.1-3.7,4.6c-2,2.9-5.5,3.9-8.7,1.4
	c-2.3-1.8-3.6-3.9-3.7-6.6c-0.1-4.7,1-8.9,1-13.6C113.9,191,114,190.2,114,189.3z M118.8,211.3c0.7-0.4,1.3-0.5,1.6-0.9
	c2.2-2.4,4.6-4.7,6.7-7.1c1.1-1.3,1.9-2.7,1.9-4.6c0.1-3.8,0.5-7.4,0.9-11.2c0.1-1.4,0-1.8-1.4-1.6c-3,0.4-5.1,1.3-8.1,1.8
	c-0.4,0.1-0.9,0.7-1,1.1c-0.2,1.3-0.3,2.7-0.3,4.1c-0.1,5.3-1,10.1-0.9,15.4C118.2,209.3,118.6,210.2,118.8,211.3z M157.9,199.8
	c2.1-2.7,3.3-11.9,1.9-14.4C157.5,189.9,157.8,194.7,157.9,199.8z M137.3,167.9c-1.7,4.8-1.7,9.9-2.1,14.8
	C136.5,178,138.1,173.1,137.3,167.9z"/>
</svg>
