<?xml version="1.0" encoding="utf-8"?>
<!-- Generator: Adobe Illustrator 16.0.0, SVG Export Plug-In . SVG Version: 6.00 Build 0)  -->
<!DOCTYPE svg PUBLIC "-//W3C//DTD SVG 1.1//EN" "http://www.w3.org/Graphics/SVG/1.1/DTD/svg11.dtd">
<svg version="1.1" id="Layer_1" xmlns="http://www.w3.org/2000/svg" xmlns:xlink="http://www.w3.org/1999/xlink" x="0px" y="0px"
	 width="30.683px" height="34.399px" viewBox="0 0 30.683 34.399" enable-background="new 0 0 30.683 34.399" xml:space="preserve">
<path fill-rule="evenodd" clip-rule="evenodd" fill="#8EC74E" d="M14.562,1.697c0.466-0.269,1.04-0.269,1.506,0l12.472,7.197
	c0.467,0.269,0.754,0.766,0.754,1.305v14.406c0,0.538-0.287,1.035-0.753,1.305l-12.472,7.203c-0.467,0.27-1.041,0.27-1.507,0
	L2.092,25.909c-0.466-0.27-0.753-0.767-0.753-1.305V10.198c0-0.538,0.287-1.035,0.753-1.304L14.562,1.697z"/>
<path fill="#FFFFFF" d="M20.333,16.043v-2.94c0-2.696-2.187-4.881-4.881-4.881c-0.033,0-0.057-0.001-0.091-0.001
	c-0.027,0-0.062,0.001-0.089,0.001c-2.696,0-4.881,2.186-4.881,4.882v2.94H8.663v10.095h13.442V16.043H20.333z M12.833,13.104
	c0-1.345,1.093-2.438,2.439-2.438c0.037,0,0.119-0.001,0.119-0.001s0.04,0.001,0.062,0.001c1.344,0,2.439,1.094,2.439,2.438v2.94
	h-5.058V13.104z"/>
<path fill-rule="evenodd" clip-rule="evenodd" fill="#D12027" d="M14.562,1.697c0.466-0.269,1.04-0.269,1.506,0l12.472,7.197
	c0.467,0.269,0.754,0.766,0.754,1.305v14.406c0,0.538-0.287,1.035-0.753,1.305l-12.472,7.203c-0.467,0.27-1.041,0.27-1.507,0
	L2.092,25.909c-0.466-0.27-0.753-0.767-0.753-1.305V10.198c0-0.538,0.287-1.035,0.753-1.304L14.562,1.697z"/>
<path id="p" fill="#FFFFFF" d="M16.502,18.349c0.244-0.654-0.09-1.383-0.744-1.627c-0.075-0.027-0.151-0.049-0.23-0.062v-0.654
	c2.443-0.117,4.33-2.192,4.214-4.636c-0.097-2.04-1.576-3.749-3.581-4.138V6.996c3.464,0.466,5.894,3.651,5.428,7.115
	c-0.009,0.064-0.018,0.129-0.029,0.193c3.272,1.229,4.93,4.875,3.701,8.148c-0.023,0.061-0.047,0.121-0.071,0.182l-0.204-0.119
	c0.797-2.312-0.432-4.834-2.744-5.631c-1.931-0.666-4.066,0.074-5.17,1.793L16.502,18.349z M17.943,14.606
	c-1.537-1.223-3.716-1.223-5.254,0c-0.375-0.325-0.687-0.717-0.918-1.156c2.075-1.65,5.015-1.65,7.09,0
	C18.625,13.886,18.314,14.278,17.943,14.606z"/>
<path id="p_1_" fill="#FFFFFF" d="M14.341,18.714c0.445,0.539,1.244,0.615,1.782,0.168c0.062-0.051,0.118-0.105,0.168-0.168
	l0.568,0.328c-1.121,2.174-0.268,4.846,1.908,5.967c1.814,0.936,4.034,0.51,5.373-1.031l0.204,0.117
	c-2.136,2.768-6.109,3.279-8.876,1.143c-0.052-0.039-0.103-0.08-0.152-0.121c-2.7,2.219-6.688,1.83-8.907-0.869
	c-0.041-0.051-0.082-0.102-0.121-0.152l0.204-0.117c1.604,1.846,4.401,2.043,6.249,0.439c1.541-1.34,1.968-3.561,1.032-5.375
	L14.341,18.714z M16.861,21.833c1.829-0.719,2.918-2.607,2.627-4.55c0.47-0.161,0.965-0.235,1.461-0.216
	c0.392,2.621-1.078,5.168-3.545,6.139C17.145,22.784,16.961,22.319,16.861,21.833z"/>
<path id="p_2_" fill="#FFFFFF" d="M15.105,16.659c-0.689,0.117-1.153,0.77-1.037,1.459c0.014,0.078,0.034,0.156,0.062,0.23
	l-0.567,0.328c-1.323-2.059-4.063-2.654-6.122-1.332c-1.717,1.104-2.458,3.24-1.792,5.17l-0.204,0.119
	c-1.328-3.232,0.215-6.931,3.448-8.26c0.06-0.023,0.12-0.048,0.181-0.07c-0.572-3.448,1.759-6.707,5.207-7.279
	c0.063-0.011,0.128-0.021,0.192-0.029v0.235c-2.401,0.466-3.971,2.791-3.505,5.192c0.389,2.005,2.098,3.484,4.138,3.582V16.659z
	 M11.144,17.283c-0.29,1.942,0.799,3.831,2.627,4.55c-0.094,0.488-0.277,0.953-0.543,1.373c-2.466-0.971-3.936-3.518-3.544-6.139
	C10.179,17.053,10.674,17.126,11.144,17.283z"/>
</svg>
